<?xml version="1.0" encoding="iso-8859-1"?>
<!-- Generator: Adobe Illustrator 19.0.0, SVG Export Plug-In . SVG Version: 6.00 Build 0)  -->
<svg version="1.1" id="Capa_1" xmlns="http://www.w3.org/2000/svg" xmlns:xlink="http://www.w3.org/1999/xlink" x="0px" y="0px"
	 viewBox="0 0 512 512" style="enable-background:new 0 0 512 512;" xml:space="preserve">
<g>
	<g>
		<path d="M182.051,480.185c-15.143-4.992-29.842-11.569-43.689-19.548c-4.784-2.757-10.9-1.113-13.657,3.673
			c-2.757,4.785-1.113,10.899,3.672,13.657c15.025,8.657,30.977,15.794,47.412,21.212c1.04,0.343,2.095,0.506,3.132,0.506
			c4.199,0,8.109-2.666,9.496-6.872C190.146,487.567,187.296,481.914,182.051,480.185z"/>
	</g>
</g>
<g>
	<g>
		<path d="M15.19,204.504c-5.44-0.923-10.61,2.732-11.539,8.177C1.229,226.893,0,241.467,0,256c0,2.817,0.046,5.668,0.138,8.474
			c0.177,5.409,4.617,9.674,9.989,9.674c0.11-0.001,0.221-0.002,0.332-0.005c5.52-0.181,9.848-4.802,9.668-10.321
			C20.043,261.231,20,258.601,20,256c0-13.41,1.133-26.853,3.367-39.957C24.295,210.599,20.634,205.433,15.19,204.504z"/>
	</g>
</g>
<g>
	<g>
		<path d="M313.045,6.382c-16.826-3.83-34.17-5.958-51.55-6.323c-5.508-0.125-10.092,4.265-10.208,9.787
			c-0.117,5.521,4.265,10.091,9.787,10.208c16.03,0.337,32.022,2.298,47.532,5.829c0.747,0.17,1.493,0.252,2.229,0.252
			c4.563,0,8.686-3.145,9.741-7.783C321.802,12.967,318.43,7.608,313.045,6.382z"/>
	</g>
</g>
<g>
	<g>
		<path d="M42.368,356.421c-6.805-14.446-12.142-29.639-15.864-45.155c-1.289-5.371-6.689-8.685-12.057-7.391
			c-5.37,1.288-8.68,6.686-7.391,12.057c4.041,16.842,9.833,33.331,17.218,49.011c1.705,3.62,5.301,5.741,9.054,5.741
			c1.427,0,2.877-0.307,4.254-0.955C42.579,367.375,44.721,361.417,42.368,356.421z"/>
	</g>
</g>
<g>
	<g>
		<path d="M221.382,12.211c-0.992-5.433-6.194-9.035-11.633-8.042c-17.049,3.112-33.833,7.989-49.883,14.497
			c-5.118,2.075-7.585,7.906-5.51,13.024c1.577,3.888,5.319,6.245,9.271,6.245c1.251,0,2.523-0.236,3.754-0.735
			c14.788-5.995,30.25-10.489,45.959-13.356C218.773,22.852,222.374,17.644,221.382,12.211z"/>
	</g>
</g>
<g>
	<g>
		<path d="M55.175,113.54c-4.627-3.014-10.823-1.706-13.837,2.922c-9.466,14.534-17.466,30.07-23.777,46.176
			c-2.015,5.142,0.52,10.945,5.662,12.959c1.198,0.47,2.432,0.692,3.646,0.692c3.995,0,7.768-2.41,9.313-6.354
			c5.816-14.843,13.189-29.161,21.915-42.558C61.111,122.749,59.803,116.554,55.175,113.54z"/>
	</g>
</g>
<g>
	<g>
		<path d="M127.84,45.744c-3.068-4.592-9.278-5.828-13.87-2.761c-14.389,9.612-27.861,20.735-40.043,33.06
			c-3.882,3.928-3.845,10.26,0.083,14.142c1.948,1.925,4.489,2.887,7.028,2.887c2.579,0,5.157-0.991,7.113-2.97
			c11.234-11.367,23.659-21.625,36.928-30.488C129.672,56.546,130.908,50.336,127.84,45.744z"/>
	</g>
</g>
<g>
	<g>
		<path d="M287.51,500.205c-0.478-5.503-5.325-9.575-10.828-9.099c-15.839,1.374-32.136,1.15-47.887-0.657
			c-5.486-0.637-10.445,3.308-11.075,8.794c-0.629,5.487,3.308,10.445,8.795,11.075c9.712,1.115,19.632,1.681,29.485,1.682
			c7.469,0,15.009-0.326,22.412-0.968C283.914,510.554,287.987,505.707,287.51,500.205z"/>
	</g>
</g>
<g>
	<g>
		<path d="M454.988,401.009c-4.325-3.434-10.615-2.711-14.05,1.614c-5.319,6.7-11.025,13.113-17.049,19.211L322.528,320.473
			c-15.792-15.792-35.85-24.767-56.498-26.962V280.23c2.373,0.208,5.047,0.351,7.972,0.351c14.946,0,36.099-3.68,53.295-20.876
			c29.447-29.447,19.012-70.208,18.553-71.93c-0.922-3.461-3.626-6.165-7.087-7.087c-1.721-0.459-42.481-10.894-71.931,18.554
			c-4.467,4.467-8.017,9.201-10.832,14.024c-2.815-4.823-6.365-9.557-10.832-14.024c-29.448-29.447-70.209-19.011-71.93-18.553
			c-3.461,0.922-6.165,3.626-7.087,7.087c-0.458,1.721-10.894,42.482,18.553,71.93c17.198,17.198,38.349,20.876,53.295,20.876
			c2.949,0,5.644-0.146,8.031-0.356v13.28c-20.669,2.184-40.75,11.162-56.558,26.969l-101.36,101.36
			c-7.556-7.651-14.612-15.807-21.05-24.392c-3.313-4.419-9.581-5.315-14-2.002c-4.418,3.313-5.314,9.582-2.001,14
			c10.386,13.85,22.223,26.698,35.183,38.188c1.904,1.688,4.271,2.517,6.63,2.517c2.762,0,5.511-1.138,7.487-3.366
			c2.658-2.998,3.177-7.145,1.689-10.596l101.565-101.565c28.886-28.886,75.887-28.887,104.772,0l100.851,100.852
			c-0.57,0.487-1.131,0.985-1.705,1.467c-4.232,3.549-4.787,9.855-1.238,14.088c1.978,2.359,4.813,3.575,7.668,3.575
			c2.267,0,4.546-0.767,6.419-2.337c13.271-11.127,25.458-23.643,36.221-37.201C460.037,410.733,459.314,404.442,454.988,401.009z
			 M246.015,255.769c-0.077,1.621-0.203,3.104-0.35,4.412c-10.233,1.124-31.152,1.048-46.819-14.619
			c-15.736-15.736-15.645-36.465-14.429-46.586c10.114-1.193,30.93-1.271,46.608,14.407c11.259,11.259,14.488,25.132,14.993,35.863
			C245.934,251.548,245.943,253.732,246.015,255.769z M265.983,249.261c0.501-10.736,3.728-24.615,14.991-35.878
			c15.746-15.745,36.49-15.642,46.604-14.427c1.221,10.137,1.313,30.869-14.424,46.605c-15.729,15.729-36.563,15.79-46.815,14.636
			c-0.148-1.32-0.276-2.818-0.353-4.455C266.057,253.717,266.065,251.547,265.983,249.261z"/>
	</g>
</g>
<g>
	<g>
		<path d="M509.445,219.697c-0.778-5.469-5.848-9.272-11.307-8.495c-5.468,0.777-9.271,5.839-8.495,11.307
			C491.207,233.521,492,244.79,492,256c0,4.783-0.145,9.621-0.43,14.377c-0.331,5.514,3.87,10.251,9.383,10.582
			c0.204,0.012,0.407,0.018,0.608,0.018c5.249,0,9.654-4.092,9.973-9.4C511.843,266.422,512,261.182,512,256
			C512,243.852,511.14,231.638,509.445,219.697z"/>
	</g>
</g>
<g>
	<g>
		<path d="M496.135,310.567c-5.331-1.439-10.821,1.718-12.259,7.052c-4.152,15.397-9.912,30.434-17.119,44.692
			c-2.491,4.929-0.515,10.944,4.414,13.436c1.446,0.731,2.986,1.077,4.503,1.077c3.652,0,7.172-2.009,8.933-5.491
			c7.821-15.474,14.072-31.794,18.579-48.507C504.625,317.494,501.468,312.006,496.135,310.567z"/>
	</g>
</g>
<g>
	<g>
		<path d="M381.467,467.879c-2.624-4.859-8.69-6.674-13.55-4.049c-14.061,7.589-28.938,13.752-44.219,18.319
			c-5.292,1.581-8.299,7.153-6.718,12.444c1.296,4.337,5.271,7.14,9.577,7.14c0.948,0,1.912-0.137,2.867-0.422
			c16.586-4.957,32.732-11.646,47.992-19.882C382.276,478.806,384.09,472.74,381.467,467.879z"/>
	</g>
</g>
<g>
	<g>
		<path d="M416.5,49.5c-25.364,0-46,20.636-46,46s20.636,46,46,46s46-20.636,46-46S441.864,49.5,416.5,49.5z M416.5,121.5
			c-14.336,0-26-11.664-26-26s11.664-26,26-26s26,11.664,26,26S430.836,121.5,416.5,121.5z"/>
	</g>
</g>
<g>
	<g>
		<path d="M416.5,0c-5.523,0-10,4.477-10,10v6.131c0,5.523,4.477,10,10,10s10-4.477,10-10V10C426.5,4.477,422.023,0,416.5,0z"/>
	</g>
</g>
<g>
	<g>
		<path d="M416.5,164.869c-5.523,0-10,4.477-10,10V181c0,5.523,4.477,10,10,10s10-4.477,10-10v-6.131
			C426.5,169.346,422.023,164.869,416.5,164.869z"/>
	</g>
</g>
<g>
	<g>
		<path d="M502,85.5h-6.131c-5.523,0-10,4.477-10,10s4.477,10,10,10H502c5.523,0,10-4.477,10-10S507.523,85.5,502,85.5z"/>
	</g>
</g>
<g>
	<g>
		<path d="M337.131,85.5H331c-5.523,0-10,4.477-10,10s4.477,10,10,10h6.131c5.523,0,10-4.477,10-10S342.654,85.5,337.131,85.5z"/>
	</g>
</g>
<g>
	<g>
		<path d="M367.448,144.551c-3.905-3.906-10.237-3.905-14.142,0l-4.335,4.335c-3.905,3.905-3.905,10.237,0,14.143
			c1.953,1.953,4.512,2.929,7.071,2.929s5.119-0.976,7.071-2.929l4.335-4.335C371.353,154.789,371.353,148.457,367.448,144.551z"/>
	</g>
</g>
<g>
	<g>
		<path d="M484.029,27.97c-3.905-3.906-10.237-3.905-14.143,0l-4.335,4.335c-3.905,3.905-3.905,10.237,0,14.143
			c1.953,1.953,4.512,2.929,7.072,2.929c2.559,0,5.119-0.976,7.071-2.929l4.335-4.335C487.934,38.208,487.934,31.876,484.029,27.97z
			"/>
	</g>
</g>
<g>
	<g>
		<path d="M367.448,32.306l-4.335-4.335c-3.905-3.905-10.237-3.905-14.143,0c-3.906,3.905-3.905,10.237,0,14.143l4.336,4.335
			c1.953,1.953,4.512,2.929,7.071,2.929s5.119-0.976,7.071-2.929C371.353,42.544,371.353,36.212,367.448,32.306z"/>
	</g>
</g>
<g>
	<g>
		<path d="M484.029,148.886l-4.335-4.335c-3.905-3.905-10.237-3.905-14.143,0c-3.906,3.905-3.905,10.237,0,14.143l4.335,4.335
			c1.953,1.952,4.512,2.929,7.072,2.929c2.559,0,5.119-0.976,7.071-2.929C487.934,159.124,487.934,152.792,484.029,148.886z"/>
	</g>
</g>
<g>
	<g>
		<path d="M353.544,415.788l-34.833-34.834c-3.906-3.903-10.237-3.904-14.142,0c-3.905,3.905-3.906,10.237,0,14.143l34.833,34.834
			c1.953,1.953,4.512,2.929,7.071,2.929c2.559,0,5.119-0.977,7.071-2.929C357.449,426.026,357.45,419.694,353.544,415.788z"/>
	</g>
</g>
<g>
	<g>
		<path d="M290.85,353.1c-1.86-1.871-4.44-2.93-7.07-2.93s-5.21,1.06-7.07,2.93c-1.86,1.86-2.93,4.431-2.93,7.07
			c0,2.63,1.07,5.21,2.93,7.07c1.86,1.859,4.44,2.93,7.07,2.93s5.21-1.07,7.07-2.93c1.86-1.86,2.93-4.44,2.93-7.07
			C293.78,357.53,292.71,354.96,290.85,353.1z"/>
	</g>
</g>
<g>
</g>
<g>
</g>
<g>
</g>
<g>
</g>
<g>
</g>
<g>
</g>
<g>
</g>
<g>
</g>
<g>
</g>
<g>
</g>
<g>
</g>
<g>
</g>
<g>
</g>
<g>
</g>
<g>
</g>
</svg>
