<?xml version="1.0" encoding="iso-8859-1"?>
<!-- Generator: Adobe Illustrator 19.0.0, SVG Export Plug-In . SVG Version: 6.00 Build 0)  -->
<svg version="1.1" id="Layer_1" xmlns="http://www.w3.org/2000/svg" xmlns:xlink="http://www.w3.org/1999/xlink" x="0px" y="0px"
	 viewBox="0 0 512.003 512.003" style="enable-background:new 0 0 512.003 512.003;" xml:space="preserve">
<g>
	<g>
		<path d="M502.884,345.454c-5.037,0-9.119,4.083-9.119,9.119v85.223c0,12.913-10.506,23.419-23.419,23.419h-78.163
			c-9.681,0-18.008-5.904-21.57-14.301h106.739c5.037,0,9.119-4.083,9.119-9.119s-4.082-9.119-9.119-9.119H368.764v-15.154
			c0-0.019,0-0.038,0-0.056v-72.443h58.676c5.037,0,9.119-4.083,9.119-9.119s-4.082-9.119-9.119-9.119h-58.676V308.46h125.002v18.15
			c-0.002,5.034,4.079,9.116,9.116,9.116c5.037,0,9.119-4.083,9.119-9.119v-27.269c0-5.036-4.082-9.119-9.119-9.119H459.54
			c4.614-18.112,6.952-36.79,6.952-55.688c0-5.036-4.082-9.119-9.119-9.119H169.489L54.276,61.181
			c-2.892-4.123-8.58-5.12-12.702-2.229c-4.123,2.891-5.12,8.579-2.229,12.702l107.866,153.759H131.86L15.334,116.889
			c-3.684-3.434-9.456-3.229-12.888,0.458c-3.432,3.685-3.227,9.456,0.458,12.888L105.1,225.414H25.057
			c-5.036,0-9.119,4.083-9.119,9.119c0,52.476,18.436,103.568,51.912,143.863c1.803,2.172,4.401,3.292,7.019,3.292
			c2.054,0,4.119-0.689,5.823-2.105c3.874-3.218,4.406-8.967,1.188-12.842c-21.506-25.888-36.253-56.63-43.183-89.265h115.178
			c5.036,0,9.119-4.083,9.119-9.119s-4.083-9.119-9.119-9.119H35.67c-0.624-5.167-1.061-10.366-1.292-15.588h413.68
			c-0.687,15.824-3.162,31.429-7.389,46.569h-81.026c-5.037,0-9.119,4.083-9.119,9.119v111.046
			c-11.677,7.274-24.082,13.388-36.97,18.195h-25.268c-5.037,0-9.119,4.083-9.119,9.119c0,5.036,4.082,9.119,9.119,9.119h17.772
			v16.396H176.374v-16.396h79.692c5.037,0,9.119-4.083,9.119-9.119c0-5.036-4.082-9.119-9.119-9.119h-87.19
			c-23.798-8.87-45.556-21.935-64.697-38.849c-3.774-3.336-9.538-2.979-12.871,0.795c-3.335,3.774-2.979,9.537,0.795,12.871
			c19.647,17.361,41.838,30.987,66.036,40.58v28.355c0,5.036,4.083,9.119,9.119,9.119h147.922c5.037,0,9.119-4.083,9.119-9.119
			v-28.347c9.001-3.573,17.762-7.752,26.228-12.458v8.268c0,22.97,18.687,41.657,41.657,41.657h78.163
			c22.97,0,41.657-18.687,41.657-41.657v-85.223C512.003,349.537,507.921,345.454,502.884,345.454z"/>
	</g>
</g>
<g>
	<g>
		<path d="M416.557,259.239H183.054c-5.036,0-9.119,4.083-9.119,9.119s4.083,9.119,9.119,9.119h233.503
			c5.037,0,9.119-4.083,9.119-9.119S421.594,259.239,416.557,259.239z"/>
	</g>
</g>
<g>
	<g>
		<path d="M207.046,89.116c0-8.629,3.796-12.488,9.541-18.329c6.583-6.693,14.776-15.023,14.776-31.118
			c0-5.036-4.083-9.119-9.119-9.119s-9.119,4.083-9.119,9.119c0,8.629-3.796,12.488-9.541,18.329
			c-6.584,6.693-14.776,15.023-14.776,31.117c0,16.094,8.194,24.425,14.776,31.118c5.746,5.841,9.541,9.7,9.541,18.329
			c0,8.626-3.796,12.485-9.541,18.325c-6.583,6.692-14.776,15.022-14.776,31.115c0,5.036,4.083,9.119,9.119,9.119
			s9.119-4.083,9.119-9.119c0-8.626,3.796-12.485,9.541-18.325c6.584-6.692,14.776-15.022,14.776-31.115
			c0-16.094-8.192-24.424-14.776-31.117C210.841,101.604,207.046,97.745,207.046,89.116z"/>
	</g>
</g>
<g>
	<g>
		<path d="M269.306,89.116c0-8.629,3.796-12.488,9.541-18.329c6.584-6.693,14.776-15.023,14.776-31.118
			c0-5.036-4.082-9.119-9.119-9.119s-9.119,4.083-9.119,9.119c0,8.629-3.796,12.488-9.541,18.329
			c-6.584,6.693-14.776,15.023-14.776,31.117c0,16.094,8.192,24.425,14.776,31.118c5.745,5.841,9.541,9.7,9.541,18.329
			c0,8.626-3.796,12.485-9.541,18.325c-6.584,6.692-14.776,15.022-14.776,31.115c0,5.036,4.083,9.119,9.119,9.119
			c5.037,0,9.119-4.083,9.119-9.119c0-8.626,3.796-12.485,9.541-18.325c6.584-6.692,14.776-15.022,14.776-31.115
			c0-16.094-8.192-24.424-14.776-31.117C273.101,101.604,269.306,97.745,269.306,89.116z"/>
	</g>
</g>
<g>
	<g>
		<path d="M471.27,324.783h-15.868c-5.037,0-9.119,4.083-9.119,9.119s4.082,9.119,9.119,9.119h15.868
			c5.037,0,9.119-4.083,9.119-9.119S476.307,324.783,471.27,324.783z"/>
	</g>
</g>
<g>
</g>
<g>
</g>
<g>
</g>
<g>
</g>
<g>
</g>
<g>
</g>
<g>
</g>
<g>
</g>
<g>
</g>
<g>
</g>
<g>
</g>
<g>
</g>
<g>
</g>
<g>
</g>
<g>
</g>
</svg>
