<svg height="512pt" viewBox="0 0 512.00089 512" width="512pt" xmlns="http://www.w3.org/2000/svg"><path d="m368.742188 151.230469c-20.949219 0-37.992188-17.042969-37.992188-37.992188 0-20.945312 17.042969-37.988281 37.992188-37.988281 20.945312 0 37.988281 17.042969 37.988281 37.988281 0 20.949219-17.042969 37.992188-37.988281 37.992188zm0-55.988281c-9.925782 0-17.996094 8.074218-17.996094 17.996093s8.070312 17.996094 17.996094 17.996094c9.921874 0 17.992187-8.074219 17.992187-17.996094s-8.070313-17.996093-17.992187-17.996093zm0 0"/><path d="m412.984375 261.203125c-23.15625 0-41.992187-18.835937-41.992187-41.992187 0-23.152344 18.835937-41.988282 41.992187-41.988282 23.152344 0 41.988281 18.835938 41.988281 41.988282 0 23.15625-18.835937 41.992187-41.988281 41.992187zm0-63.984375c-12.128906 0-21.996094 9.867188-21.996094 21.992188 0 12.128906 9.867188 21.996093 21.996094 21.996093 12.125 0 21.992187-9.867187 21.992187-21.996093 0-12.125-9.867187-21.992188-21.992187-21.992188zm0 0"/><path d="m360.742188 375.035156c-25.355469 0-45.988282-20.628906-45.988282-45.988281 0-25.355469 20.632813-45.988281 45.988282-45.988281 25.359374 0 45.988281 20.632812 45.988281 45.988281 0 25.359375-20.628907 45.988281-45.988281 45.988281zm0-71.980468c-14.332032 0-25.992188 11.660156-25.992188 25.992187 0 14.335937 11.660156 25.996094 25.992188 25.996094 14.332031 0 25.992187-11.660157 25.992187-25.996094 0-14.332031-11.660156-25.992187-25.992187-25.992187zm0 0"/><path d="m250.917969 431.058594c-28.667969 0-51.988281-23.320313-51.988281-51.984375 0-28.667969 23.320312-51.988281 51.988281-51.988281 28.664062 0 51.984375 23.320312 51.984375 51.988281 0 28.664062-23.320313 51.984375-51.984375 51.984375zm0-83.976563c-17.640625 0-31.992188 14.351563-31.992188 31.992188s14.351563 31.992187 31.992188 31.992187c17.636719 0 31.988281-14.351562 31.988281-31.992187s-14.351562-31.992188-31.988281-31.992188zm0 0"/><path d="m121.109375 390.847656c-31.976563 0-57.988281-26.011718-57.988281-57.984375 0-31.972656 26.011718-57.984375 57.988281-57.984375 31.972656 0 57.984375 26.011719 57.984375 57.984375 0 31.972657-26.011719 57.984375-57.984375 57.984375zm0-95.976562c-20.949219 0-37.992187 17.042968-37.992187 37.992187s17.042968 37.992188 37.992187 37.992188c20.945313 0 37.988281-17.042969 37.988281-37.992188s-17.042968-37.992187-37.988281-37.992187zm0 0"/><path d="m199.960938 508.765625c-.476563 0-.964844-.035156-1.449219-.105469-56.40625-8.203125-107.980469-33.328125-149.152344-72.664062-6.050781-5.777344-11.890625-11.882813-17.355469-18.140625-33.640625-38.515625-41.398437-91.371094-20.242187-137.933594 21.15625-46.566406 66.074219-75.496094 117.21875-75.496094 79.597656 0 144.355469-49.371093 144.355469-110.058593 0-2.796876-.136719-5.625-.414063-8.398438-3.058594-30.734375 11.71875-59.515625 38.5625-75.117188 27.035156-15.707031 59.597656-14.277343 84.984375 3.738282 12.523438 8.886718 24.425781 18.945312 35.371094 29.890625 51.617187 51.617187 80.085937 120.246093 80.160156 193.246093.074219 72.988282-28.246094 141.664063-79.738281 193.378907-41.074219 41.253906-93.207031 67.882812-150.761719 77.015625-5.46875.859375-10.574219-2.855469-11.441406-8.308594-.863282-5.453125 2.855468-10.574219 8.308594-11.441406 53.34375-8.464844 101.660156-33.144532 139.726562-71.375 98.488281-98.90625 98.308594-259.675782-.390625-358.378906-10.15625-10.152344-21.191406-19.480469-32.804687-27.71875-18.914063-13.421876-43.195313-14.480469-63.367188-2.761719-19.984375 11.613281-30.984375 33.015625-28.714844 55.847656.34375 3.433594.515625 6.925781.515625 10.382813 0 35.222656-17.425781 68.171874-49.066406 92.78125-30.902344 24.035156-71.84375 37.269531-115.285156 37.269531-43.203125 0-81.144531 24.4375-99.015625 63.773437-17.867188 39.332032-11.316406 83.976563 17.101562 116.507813 5.070313 5.808593 10.488282 11.472656 16.105469 16.839843 38.152344 36.445313 85.945313 59.730469 138.21875 67.332032 5.460937.796875 9.246094 5.867187 8.453125 11.332031-.726562 4.976563-5 8.5625-9.882812 8.5625zm0 0"/><path d="m239.941406 511.523438c-2.632812 0-5.210937-1.058594-7.070312-2.917969-1.859375-1.871094-2.929688-4.4375-2.929688-7.066407 0-2.632812 1.070313-5.210937 2.929688-7.078124 1.859375-1.863282 4.4375-2.921876 7.070312-2.921876 2.628906 0 5.207032 1.058594 7.066406 2.921876 1.859376 1.867187 2.929688 4.445312 2.929688 7.078124 0 2.628907-1.070312 5.195313-2.929688 7.066407-1.859374 1.859375-4.4375 2.917969-7.066406 2.917969zm0 0"/></svg>