<?xml version="1.0" encoding="iso-8859-1"?>
<!-- Generator: Adobe Illustrator 18.0.0, SVG Export Plug-In . SVG Version: 6.00 Build 0)  -->
<!DOCTYPE svg PUBLIC "-//W3C//DTD SVG 1.1//EN" "http://www.w3.org/Graphics/SVG/1.1/DTD/svg11.dtd">
<svg version="1.1" id="Capa_1" xmlns="http://www.w3.org/2000/svg" xmlns:xlink="http://www.w3.org/1999/xlink" x="0px" y="0px"
	 viewBox="0 0 63.5 63.5" style="enable-background:new 0 0 63.5 63.5;" xml:space="preserve">
<path d="M49.279,4.75h-0.255v-1c0-2.068-1.682-3.75-3.75-3.75s-3.75,1.682-3.75,3.75v1H21.976v-1c0-2.068-1.682-3.75-3.75-3.75
	s-3.75,1.682-3.75,3.75v1h-0.255c-6.351,0-11.518,5.167-11.518,11.518v35.715c0,6.351,5.167,11.518,11.518,11.518h35.058
	c6.351,0,11.518-5.167,11.518-11.518V16.268C60.796,9.917,55.629,4.75,49.279,4.75z M43.524,3.75c0-0.965,0.785-1.75,1.75-1.75
	s1.75,0.785,1.75,1.75v4c0,0.965-0.785,1.75-1.75,1.75s-1.75-0.785-1.75-1.75V3.75z M16.476,3.75c0-0.965,0.785-1.75,1.75-1.75
	s1.75,0.785,1.75,1.75v4c0,0.965-0.785,1.75-1.75,1.75s-1.75-0.785-1.75-1.75V3.75z M14.221,6.75h0.255v1
	c0,2.068,1.682,3.75,3.75,3.75s3.75-1.682,3.75-3.75v-1h19.548v1c0,2.068,1.682,3.75,3.75,3.75s3.75-1.682,3.75-3.75v-1h0.255
	c5.248,0,9.518,4.27,9.518,9.518v2.482H4.704v-2.482C4.704,11.02,8.973,6.75,14.221,6.75z M49.279,61.5H14.221
	c-5.248,0-9.518-4.27-9.518-9.518V20.75h54.093v31.232C58.796,57.23,54.527,61.5,49.279,61.5z M52.667,31.833c0.552,0,1-0.448,1-1
	s-0.448-1-1-1h-3.5v-3c0-0.552-0.448-1-1-1s-1,0.448-1,1v3h-6.333v-3c0-0.552-0.448-1-1-1s-1,0.448-1,1v3H32.5v-3
	c0-0.552-0.448-1-1-1s-1,0.448-1,1v3h-6.333v-3c0-0.552-0.448-1-1-1s-1,0.448-1,1v3h-6.333v-3c0-0.552-0.448-1-1-1s-1,0.448-1,1v3
	h-3.5c-0.552,0-1,0.448-1,1s0.448,1,1,1h3.5V39.5h-3.5c-0.552,0-1,0.448-1,1s0.448,1,1,1h3.5v7.667h-3.5c-0.552,0-1,0.448-1,1
	s0.448,1,1,1h3.5v3c0,0.552,0.448,1,1,1s1-0.448,1-1v-3h6.333v3c0,0.552,0.448,1,1,1s1-0.448,1-1v-3H30.5v3c0,0.552,0.448,1,1,1
	s1-0.448,1-1v-3h6.333v3c0,0.552,0.448,1,1,1s1-0.448,1-1v-3h6.333v3c0,0.552,0.448,1,1,1s1-0.448,1-1v-3h3.5c0.552,0,1-0.448,1-1
	s-0.448-1-1-1h-3.5V41.5h3.5c0.552,0,1-0.448,1-1s-0.448-1-1-1h-3.5v-7.667H52.667z M38.833,31.833V39.5H32.5v-7.667H38.833z
	 M30.5,31.833V39.5h-6.333v-7.667H30.5z M15.833,31.833h6.333V39.5h-6.333V31.833z M15.833,49.167V41.5h6.333v7.667H15.833z
	 M24.167,49.167V41.5H30.5v7.667H24.167z M32.5,49.167V41.5h6.333v7.667H32.5z M47.167,49.167h-6.333V41.5h6.333V49.167z
	 M47.167,39.5h-6.333v-7.667h6.333V39.5z"/>
<g>
</g>
<g>
</g>
<g>
</g>
<g>
</g>
<g>
</g>
<g>
</g>
<g>
</g>
<g>
</g>
<g>
</g>
<g>
</g>
<g>
</g>
<g>
</g>
<g>
</g>
<g>
</g>
<g>
</g>
</svg>
