<svg id="Capa_1" enable-background="new 0 0 512 512" height="512" viewBox="0 0 512 512" width="512" xmlns="http://www.w3.org/2000/svg"><g><path d="m511.324 278.873c-.217-26.092-19.044-47.912-43.753-52.834l-32.645-81.61c-2.277-5.695-7.792-9.429-13.926-9.429h-90v-59c0-8.284-6.716-15-15-15h-301c-8.284 0-15 6.716-15 15v284c0 8.284 6.716 15 15 15h63.021c-10.191 38.414 18.941 76 58.479 76 39.596 0 68.658-37.63 58.479-76h148.042c-10.191 38.414 18.941 76 58.479 76 39.596 0 68.658-37.63 58.479-76h37.021c8.33 0 15.07-6.797 14.999-15.125zm-76.479-53.873h-43.845v-60h19.845zm-133.845-134v194h-271v-194zm-271 224h271v30h-124.691c-22.825-19.995-56.773-20.012-79.617 0h-66.692zm106.5 106c-16.817 0-30.5-13.682-30.5-30.5s13.683-30.5 30.5-30.5 30.5 13.682 30.5 30.5-13.683 30.5-30.5 30.5zm265 0c-16.817 0-30.5-13.682-30.5-30.5s13.683-30.5 30.5-30.5 30.5 13.682 30.5 30.5-13.683 30.5-30.5 30.5zm39.809-76c-22.825-19.995-56.773-20.012-79.617 0h-30.692v-180h30v75c0 8.284 6.716 15 15 15h81c13.303 0 24.215 10.822 24.326 24.124l.548 65.876z"/><path d="m76 256c8.284 0 15-6.716 15-15v-105c0-8.284-6.716-15-15-15s-15 6.716-15 15v105c0 8.284 6.716 15 15 15z"/><path d="m136 256c8.284 0 15-6.716 15-15v-105c0-8.284-6.716-15-15-15s-15 6.716-15 15v105c0 8.284 6.716 15 15 15z"/><path d="m196 256c8.284 0 15-6.716 15-15v-105c0-8.284-6.716-15-15-15s-15 6.716-15 15v105c0 8.284 6.716 15 15 15z"/><path d="m256 256c8.284 0 15-6.716 15-15v-105c0-8.284-6.716-15-15-15s-15 6.716-15 15v105c0 8.284 6.716 15 15 15z"/></g></svg>